# xmcd
#
# Track frame offsets: 
#        150
#        18455
#        35153
#        54276
#        75393
#        90409
#        103812
#        123352
#        137302
#        150688
#        177980
#        196012
#        220206
#        235576
#
# Disc length: 3283 seconds
#
# Revision: 2
# Processed by: cddbd v1.5.2PL0 Copyright (c) Steve Scherf et al.
# Submitted via: ExactAudioCopy v1.0b3
#
DISCID=a80cd10e
DTITLE=The Holmes Brothers - State Of Grace
DYEAR=2007
DGENRE=Blues
TTITLE0=Smiling Face Hiding A Weeping Heart
TTITLE1=Close The Doore
TTITLE2=(What's So Funny 'Bout) Peace, Love And Understanding?
TTITLE3=Gasoline Drawers
TTITLE4=I Can't Help It If I'm Still In Love With You (w Rosanne Cash)
TTITLE5=Bad Moon Rising
TTITLE6=Three Gray Walls
TTITLE7=If I Had A Boat
TTITLE8=Those Memories Of You (Feat. Joan Osborne)
TTITLE9=I Want You To Want Me
TTITLE10=Ain't It Funny What A Fool Will Do
TTITLE11=Standing In The Need Of Love
TTITLE12=I've Just Seen The Rock Of Ages (w Levon Helm)
TTITLE13=God Will
EXTD=YEAR: 2007
EXTT0=
EXTT1=
EXTT2=
EXTT3=
EXTT4=
EXTT5=
EXTT6=
EXTT7=
EXTT8=
EXTT9=
EXTT10=
EXTT11=
EXTT12=
EXTT13=
PLAYORDER=
